<!-- Ko-데헌 | Primary Lockup -->
<svg xmlns="http://www.w3.org/2000/svg" width="520" height="120" viewBox="0 0 520 120" role="img" aria-label="Ko-데헌 로고">
  <defs>
    <linearGradient id="gradKo" x1="0" y1="0" x2="1" y2="1">
      <stop offset="0" stop-color="#2F5FE0"/>
      <stop offset="1" stop-color="#2CE38F"/>
    </linearGradient>
    <clipPath id="clip">
      <rect x="0" y="0" width="520" height="120" rx="20"/>
    </clipPath>
  </defs>
  <rect x="0" y="0" width="520" height="120" rx="20" fill="none" opacity="0"/>
  <g transform="translate(20,20)">
    <circle cx="40" cy="40" r="40" fill="url(#gradKo)"/>
    <path d="M24 15 v50 h10 V50 l19 15 h13 L49 45 66 25 H53 L34 41 V15 Z" fill="#ffffff" opacity="0.95"/>
    <g transform="translate(40,40)">
      <circle r="14" fill="none" stroke="#ffffff" stroke-width="3"/>
      <circle r="3" fill="#ffffff"/>
      <path d="M0,-20 V-14 M0,14 V20 M-20,0 H-14 M14,0 H20" stroke="#ffffff" stroke-width="3" stroke-linecap="round"/>
    </g>
  </g>
  <g transform="translate(120,38)">
    <text x="0" y="24" font-family="Inter, Pretendard, 'Noto Sans KR', system-ui, sans-serif"
          font-size="36" font-weight="800" fill="#0F172A" letter-spacing="0.5">
      Ko-
    </text>
    <text x="92" y="24" font-family="Pretendard, 'Noto Sans KR', Inter, system-ui, sans-serif"
          font-size="36" font-weight="900" fill="#0F172A">
      데헌
    </text>
    <text x="0" y="56" font-family="Inter, Pretendard, 'Noto Sans KR', system-ui, sans-serif"
          font-size="14" fill="#475569" letter-spacing="0.3">
      Korea Joheunde Hunters
    </text>
  </g>
</svg>
